<svg width="40" height="40" viewBox="0 0 40 40" fill="none" xmlns="http://www.w3.org/2000/svg">
<path d="M24.0169 3.77086C15.0541 1.55276 5.98919 7.02024 3.77239 15.9831C1.55559 24.9459 7.02177 34.0095 15.9846 36.2276C24.9475 38.4457 34.0111 32.9779 36.2292 24.0154C38.4473 15.0529 32.9795 5.98766 24.0169 3.77086ZM34.7864 23.6583C32.7657 31.8243 24.5076 36.8056 16.3417 34.7849C8.17573 32.7641 3.19412 24.5061 5.21645 16.3401C7.23878 8.1742 15.4939 3.19259 23.6599 5.21492C31.8258 7.23725 36.8071 15.4924 34.7864 23.6583V23.6583Z" fill="#F9F9F9"/>
<path d="M15.1975 39.4093C25.9173 42.0621 36.7579 35.5224 39.41 24.8026C42.0621 14.0827 35.5231 3.2421 24.8033 0.589984C14.0834 -2.06213 3.24345 4.47655 0.590372 15.1967C-2.06271 25.9169 4.47565 36.7569 15.1975 39.4093ZM2.31616 15.6234C4.73324 5.85654 14.6102 -0.10162 24.377 2.31545C34.1438 4.73252 40.102 14.6095 37.6849 24.3763C35.2678 34.1431 25.3909 40.1012 15.6241 37.6842C5.85725 35.2671 -0.10091 25.3902 2.31616 15.6234Z" fill="#F9F9F9"/>
<path d="M21.5478 9.1543C19.695 9.17248 17.9162 9.88399 16.562 11.1486V9.71518H12.8223V27.1035C12.8251 28.0945 13.22 29.0441 13.9207 29.7449C14.6214 30.4457 15.571 30.8407 16.562 30.8436V23.9253C17.9034 25.21 19.6905 25.9247 21.5478 25.9193C25.786 25.9193 29.1513 22.1798 29.1513 17.5057C29.1484 12.8937 25.7235 9.1543 21.5478 9.1543ZM20.862 22.2426C18.556 22.2426 16.6238 20.1237 16.6238 17.5682C16.6238 15.0126 18.4935 12.8937 20.862 12.8937C23.2305 12.8937 25.1002 15.0126 25.1002 17.5682C25.1002 20.1237 23.168 22.2426 20.862 22.2426V22.2426Z" fill="#F9F9F9"/>
</svg>
